<svg width="44" height="18" viewBox="0 0 44 18" fill="none" xmlns="http://www.w3.org/2000/svg">
<path d="M6.065 17.9972V9.80115H8.83L9.241 6.59215H6.065V4.54815C6.065 3.62215 6.323 2.98815 7.652 2.98815H9.336V0.12715C8.517 0.03915 7.693 -0.00285004 6.869 0.000149963C4.425 0.000149963 2.747 1.49215 2.747 4.23115V6.58615H0V9.79515H2.753V17.9972H6.065Z" fill="black"/>
<path d="M15.7032 8.34625H16.4181C16.8556 8.34625 17.2208 8.27203 17.5138 8.1236C17.8107 7.97125 18.0333 7.77008 18.1818 7.52008C18.3341 7.27008 18.4103 6.99274 18.4103 6.68805C18.4103 6.3443 18.3458 6.04352 18.2169 5.78571C18.088 5.52399 17.8907 5.32086 17.6251 5.17633C17.3634 5.02789 17.0275 4.95367 16.6173 4.95367C16.2579 4.95367 15.9376 5.02399 15.6564 5.16461C15.3751 5.30524 15.1525 5.50641 14.9884 5.76813C14.8243 6.02985 14.7423 6.34235 14.7423 6.70563H14.045C14.045 6.24078 14.1564 5.83258 14.379 5.48102C14.6017 5.12555 14.9083 4.84821 15.299 4.64899C15.6896 4.44977 16.129 4.35016 16.6173 4.35016C17.1212 4.35016 17.5587 4.44196 17.9298 4.62555C18.3048 4.80914 18.5939 5.07672 18.797 5.42828C19.004 5.77985 19.1075 6.20758 19.1075 6.71149C19.1075 6.9693 19.0509 7.22321 18.9376 7.47321C18.8282 7.72321 18.6642 7.94977 18.4454 8.15289C18.2267 8.35211 17.9552 8.51227 17.631 8.63336C17.3068 8.75446 16.9298 8.815 16.5001 8.815H15.7032V8.34625ZM15.7032 8.94977V8.48688H16.5001C16.9884 8.48688 17.4064 8.54352 17.754 8.6568C18.1017 8.76617 18.3868 8.92242 18.6095 9.12555C18.8361 9.32477 19.0021 9.55719 19.1075 9.82281C19.213 10.0884 19.2657 10.3736 19.2657 10.6783C19.2657 11.0689 19.2013 11.4146 19.0724 11.7154C18.9435 12.0162 18.7599 12.272 18.5216 12.483C18.2872 12.69 18.0099 12.8482 17.6896 12.9576C17.3732 13.063 17.0255 13.1158 16.6466 13.1158C16.3029 13.1158 15.9669 13.065 15.6388 12.9634C15.3146 12.8619 15.0216 12.7115 14.7599 12.5123C14.5021 12.3091 14.297 12.0552 14.1447 11.7505C13.9923 11.442 13.9161 11.0865 13.9161 10.6841H14.6134C14.6134 11.0435 14.6993 11.3619 14.8712 11.6392C15.0431 11.9127 15.2814 12.1275 15.5861 12.2838C15.8947 12.4361 16.2482 12.5123 16.6466 12.5123C17.049 12.5123 17.3927 12.4439 17.6779 12.3072C17.9669 12.1666 18.1876 11.9615 18.34 11.692C18.4923 11.4224 18.5685 11.0923 18.5685 10.7017C18.5685 10.2916 18.4767 9.95758 18.2931 9.69977C18.1134 9.44196 17.8615 9.2525 17.5372 9.13141C17.2169 9.01031 16.8439 8.94977 16.4181 8.94977H15.7032ZM20.8478 12.5709C20.8478 12.4341 20.8907 12.3189 20.9767 12.2252C21.0665 12.1275 21.1876 12.0787 21.34 12.0787C21.4962 12.0787 21.6193 12.1255 21.7091 12.2193C21.799 12.313 21.8439 12.4302 21.8439 12.5709C21.8439 12.7037 21.799 12.817 21.7091 12.9107C21.6193 13.0045 21.4962 13.0513 21.34 13.0513C21.1876 13.0513 21.0665 13.0045 20.9767 12.9107C20.8907 12.817 20.8478 12.7037 20.8478 12.5709ZM28.922 4.46735V4.87164L25.2775 12.9986H24.5509L28.172 5.07086H23.3146V4.46735H28.922ZM33.756 4.46735H34.4825L37.6349 11.9791L40.7931 4.46735H41.5138L37.9103 12.9986H37.3595L33.756 4.46735ZM33.5333 4.46735H34.172L34.2482 9.27203V12.9986H33.5333V4.46735ZM41.1095 4.46735H41.7482V12.9986H41.0275V9.27203L41.1095 4.46735Z" fill="black"/>
</svg>
