<svg width="87" height="32" viewBox="0 0 87 32" fill="none" xmlns="http://www.w3.org/2000/svg">
<rect x="0.476562" width="86" height="32" rx="4" fill="white" fill-opacity="0.2"/>
<path d="M15.4446 25V10.936H10.8126V8.2H22.9566V10.936H18.3246V25H15.4446ZM30.5689 13.336C30.8729 13.336 31.1849 13.368 31.5049 13.432C31.8409 13.496 32.0969 13.56 32.2729 13.624L32.5369 13.696L31.5289 16.288C31.1769 16.112 30.7209 16.024 30.1609 16.024C29.6489 16.024 29.1769 16.152 28.7449 16.408C28.3289 16.664 28.0329 16.92 27.8569 17.176L27.6169 17.56V25H24.7369V13.624H27.4729V15.28C27.5049 15.232 27.5449 15.168 27.5929 15.088C27.6409 14.992 27.7609 14.832 27.9529 14.608C28.1449 14.384 28.3449 14.192 28.5529 14.032C28.7769 13.856 29.0649 13.696 29.4169 13.552C29.7849 13.408 30.1689 13.336 30.5689 13.336ZM38.2009 22.888C38.7129 22.888 39.1849 22.776 39.6169 22.552C40.0649 22.328 40.3769 22.104 40.5529 21.88L40.8409 21.568V20.392C40.1529 20.008 39.2889 19.816 38.2489 19.816C37.7049 19.816 37.2169 19.944 36.7849 20.2C36.3529 20.456 36.1369 20.864 36.1369 21.424C36.1369 22.4 36.8249 22.888 38.2009 22.888ZM38.5369 13.336C40.1529 13.336 41.4169 13.72 42.3289 14.488C43.2569 15.24 43.7209 16.272 43.7209 17.584V25H41.0569V23.56C40.9609 23.688 40.8249 23.848 40.6489 24.04C40.4729 24.232 40.0649 24.488 39.4249 24.808C38.7849 25.128 38.0809 25.288 37.3129 25.288C36.1929 25.288 35.2249 24.944 34.4089 24.256C33.6089 23.568 33.2089 22.64 33.2089 21.472C33.2089 20.384 33.6409 19.488 34.5049 18.784C35.3689 18.064 36.4249 17.704 37.6729 17.704C38.2969 17.704 38.8729 17.776 39.4009 17.92C39.9289 18.048 40.2969 18.184 40.5049 18.328L40.8409 18.52V17.872C40.8409 17.2 40.5849 16.704 40.0729 16.384C39.5769 16.064 39.0169 15.904 38.3929 15.904C37.8969 15.904 37.3609 15.976 36.7849 16.12C36.2249 16.248 35.7849 16.384 35.4649 16.528L34.9849 16.744L34.0489 14.368C35.4569 13.68 36.9529 13.336 38.5369 13.336ZM45.2121 13.624H48.4041L51.2841 19.816L54.1641 13.624H57.2601L51.2361 25.576L45.2121 13.624ZM63.2668 13.336C64.8668 13.336 66.2188 13.896 67.3228 15.016C68.4428 16.136 69.0028 17.552 69.0028 19.264C69.0028 19.696 68.9948 20.056 68.9788 20.344H60.4828C60.6108 20.92 60.9628 21.448 61.5388 21.928C62.1308 22.408 62.8428 22.648 63.6748 22.648C64.2668 22.648 64.8188 22.552 65.3308 22.36C65.8588 22.168 66.2348 21.976 66.4588 21.784L66.7948 21.496L68.2348 23.656C68.1068 23.784 67.9148 23.936 67.6588 24.112C67.4028 24.288 66.8748 24.528 66.0748 24.832C65.2908 25.136 64.4908 25.288 63.6748 25.288C61.9468 25.288 60.4908 24.712 59.3068 23.56C58.1388 22.408 57.5548 20.992 57.5548 19.312C57.5548 17.632 58.0988 16.216 59.1868 15.064C60.2748 13.912 61.6348 13.336 63.2668 13.336ZM60.4828 18.256H66.1228C66.0908 17.68 65.8188 17.152 65.3068 16.672C64.8108 16.192 64.1308 15.952 63.2668 15.952C62.4188 15.952 61.7548 16.192 61.2748 16.672C60.8108 17.136 60.5468 17.664 60.4828 18.256ZM71.4557 25V6.856H74.3357V25H71.4557Z" fill="white"/>
</svg>
